PathFileType	4	(X/Y/Z)	./resultDataOpenSim/trcMotMarkerGrf/sub10/qtm-01-07.trc
DataRate	CameraRate	NumFrames	NumMarkers	Units	OrigDataRate	OrigDataStartFrame	OrigNumFrames
250.000000	250.000000	9	24	m	250.000000	407	464
Frame#	Time	L.Toe.Tip			R.Toe.Tip			L.Ankle.Lat			R.Ankle.Lat			L.Ankle.Med			R.Ankle.Med			L.Heel			R.Heel			L.Knee.Lat			R.Knee.Lat			L.Knee.Med			R.Knee.Med			L.Thigh.Upper			R.Thigh.Upper			L.ASIS			R.ASIS			V.Sacral			L.Acromium			R.Acromium			C7			L.Elbow			R.Elbow			L.Wrist.Lat			R.Wrist.Lat
		X1	Y1	Z1	X2	Y2	Z2	X3	Y3	Z3	X4	Y4	Z4	X5	Y5	Z5	X6	Y6	Z6	X7	Y7	Z7	X8	Y8	Z8	X9	Y9	Z9	X10	Y10	Z10	X11	Y11	Z11	X12	Y12	Z12	X13	Y13	Z13	X14	Y14	Z14	X15	Y15	Z15	X16	Y16	Z16	X17	Y17	Z17	X18	Y18	Z18	X19	Y19	Z19	X20	Y20	Z20	X21	Y21	Z21	X22	Y22	Z22	X23	Y23	Z23	X24	Y24	Z24

407	1.624	1.5831061	0.13616096	-0.040622027	0.86295814	0.037969614	0.093183572	1.4566176	0.091634715	-0.063218971	0.72464124	0.073401827	0.12479369	1.4622475	0.11922554	0.017330703	0.75329967	0.095890267	0.042430405	1.4200789	0.034486422	-0.011653946	0.6718825	0.058729994	0.077565565	1.2885458	0.44493786	-0.090065317	0.90789333	0.43486833	0.17129226	1.3045851	0.42247695	0.02968028	0.93692609	0.43241115	0.044898155	1.1476479	0.79341395	-0.14353049	1.0045578	0.83711606	0.21736709	1.1758169	0.90801039	-0.066695465	1.104387	0.9203382	0.17593441	0.94843947	0.9150979	-0.012346652	1.0621184	1.3698696	-0.13481221	1.0470747	1.3748627	0.1956055	0.96618816	1.4026598	0.022596174	0.89684682	1.0627085	-0.16610722	1.0997609	1.0233476	0.26928734	0.98616739	0.8275828	-0.22641659	1.3351789	0.93848738	0.27898107
408	1.628	1.58873	0.13404266	-0.040426949	0.86308263	0.037988461	0.093198906	1.4622487	0.09032293	-0.063493535	0.72535401	0.0749216	0.12490466	1.4678174	0.11767775	0.016899444	0.75417679	0.096982542	0.042474023	1.4252641	0.03330046	-0.012575142	0.67233936	0.060817398	0.077790892	1.2975166	0.44532276	-0.090257488	0.91206764	0.43445987	0.17070191	1.3128048	0.4227463	0.029319584	0.942025	0.43135887	0.04449175	1.1551237	0.79332687	-0.14371621	1.0098201	0.83617831	0.21655157	1.1829502	0.9069806	-0.06631712	1.1099817	0.91929708	0.17614034	0.9552646	0.91410611	-0.013474346	1.0686169	1.3689149	-0.13514542	1.0527123	1.3737919	0.19528083	0.97237723	1.4016639	0.02205636	0.90211581	1.0623084	-0.16696818	1.1075068	1.0224602	0.26769778	0.99076612	0.8270659	-0.22723865	1.3437681	0.93995304	0.27754811
409	1.632	1.5938135	0.13168311	-0.040385073	0.86322947	0.038012378	0.093227507	1.4673933	0.088810418	-0.063679401	0.72617889	0.076530685	0.12506257	1.4729027	0.11624047	0.016583068	0.75512028	0.098162392	0.042582542	1.4299672	0.031977714	-0.013347477	0.67288941	0.063054838	0.078071449	1.3062333	0.44560989	-0.090467562	0.91636015	0.43406757	0.17012039	1.3210616	0.42304481	0.028965373	0.94717033	0.43028267	0.04414338	1.1625115	0.79348643	-0.14398899	1.0152122	0.83525885	0.21573525	1.1901786	0.90609247	-0.065975883	1.115681	0.91822407	0.17632623	0.9623379	0.91311998	-0.014627585	1.0751224	1.3680242	-0.13549383	1.0583966	1.3727457	0.19493945	0.97855774	1.4007035	0.021486583	0.90746949	1.0619672	-0.16786566	1.1151284	1.0216024	0.26605506	0.99550654	0.8266072	-0.22808683	1.3522043	0.94139979	0.27612727
410	1.636	1.5984955	0.12915057	-0.040495172	0.8633991	0.038041847	0.09326449	1.4721146	0.087152578	-0.063824215	0.72713174	0.078234478	0.12523812	1.4774836	0.11506324	0.016397524	0.75614151	0.099439532	0.042740975	1.4342466	0.030533404	-0.013963224	0.67353916	0.065449166	0.078392688	1.3146608	0.44577868	-0.09070456	0.92075774	0.43368863	0.16952984	1.3293206	0.4233341	0.028619943	0.95237003	0.42921283	0.043844177	1.1698358	0.79382961	-0.14434675	1.0207364	0.8343444	0.21492294	1.197495	0.90537223	-0.065675033	1.1215051	0.91711525	0.17648903	0.96960491	0.91216726	-0.015787794	1.0816285	1.3672026	-0.13586293	1.0642397	1.3716878	0.19452746	0.98472919	1.3997871	0.020892279	0.91293465	1.0616794	-0.16881828	1.1225873	1.0207674	0.26435762	1.0004235	0.82620688	-0.22897338	1.3604787	0.9428244	0.2747181
411	1.64	1.6028931	0.12649851	-0.04076912	0.86359348	0.038077361	0.093301449	1.4764588	0.085384239	-0.063931174	0.72819447	0.080046157	0.12543022	1.4816522	0.11401472	0.016314965	0.75725631	0.10082204	0.042932813	1.4381472	0.028978441	-0.014445142	0.67429346	0.068003859	0.078734729	1.3227747	0.44581962	-0.090974368	0.92526166	0.43332339	0.16892898	1.3375066	0.42358138	0.028275014	0.95763959	0.42818264	0.043572268	1.177121	0.79428601	-0.1447799	1.0263942	0.83342532	0.2141183	1.204888	0.90483543	-0.065418477	1.1274785	0.91597654	0.17662602	0.9769278	0.91128013	-0.016890092	1.0881331	1.3664544	-0.13625273	1.0703452	1.3705866	0.19398492	0.99090094	1.3989265	0.020286592	0.9185138	1.0614445	-0.16982942	1.129895	1.0199756	0.26262167	1.0054922	0.82586226	-0.22988927	1.3685865	0.94422718	0.27332225
412	1.644	1.6070401	0.1237571	-0.041161943	0.86382009	0.038122766	0.093326375	1.4804625	0.083525287	-0.063993151	0.72931611	0.08199559	0.12567048	1.4855765	0.11268424	0.016260203	0.75848347	0.10231635	0.043144369	1.4416921	0.027334494	-0.014838502	0.67515663	0.070719883	0.0790775	1.3305658	0.44573391	-0.091278723	0.92989581	0.43297631	0.16833356	1.3455388	0.42377109	0.027920484	0.96299172	0.42722537	0.043305838	1.184391	0.79479105	-0.14527582	1.0321926	0.83250868	0.21333014	1.2123474	0.90447826	-0.065209987	1.1336162	0.91481698	0.17673532	0.98420117	0.91047405	-0.01787018	1.0946407	1.3657788	-0.13665214	1.0766627	1.3694777	0.19332326	0.99708741	1.3981286	0.019678381	0.92416385	1.0612693	-0.17086883	1.1371186	1.0192729	0.26088185	1.0106726	0.82556935	-0.23081798	1.3765313	0.94560401	0.27193837
413	1.648	1.6109169	0.12094282	-0.041559397	0.8640911	0.038183984	0.093329738	1.4841575	0.081585868	-0.064002805	0.7304526	0.084125551	0.12599027	1.4893659	0.11079661	0.016190774	0.7598396	0.10393281	0.043365847	1.4448764	0.025661306	-0.015179153	0.67613117	0.073600162	0.07941482	1.3380486	0.44552652	-0.091617501	0.93469638	0.43265715	0.16776485	1.3533793	0.42390814	0.027552638	0.96843409	0.42636859	0.043031191	1.1916727	0.7953	-0.14582155	1.0381413	0.83161042	0.21256889	1.2198595	0.90428624	-0.065058363	1.1399262	0.91364689	0.17680929	0.991414	0.90975182	-0.01870351	1.1011577	1.3651761	-0.13705452	1.0829689	1.3684709	0.19263712	1.0032998	1.3973921	0.019068111	0.92984576	1.0611583	-0.17190462	1.1443141	1.018688	0.25916598	1.0159497	0.82532815	-0.23175106	1.3843257	0.94694694	0.27056625
414	1.652	1.6145059	0.1180636	-0.041852336	0.86441346	0.03825824	0.093314131	1.4875693	0.079571635	-0.063953997	0.73161775	0.086447534	0.12636257	1.4930112	0.10844611	0.016128993	0.76133571	0.10568304	0.04358949	1.4476575	0.024084672	-0.015471527	0.67722544	0.076650984	0.07973967	1.3452637	0.44520409	-0.091984309	0.93968787	0.43237817	0.16723795	1.3610439	0.42400616	0.027174226	0.97397176	0.42562431	0.042747642	1.1989925	0.79578941	-0.14640231	1.0442472	0.83074199	0.21184015	1.2274089	0.90424626	-0.06497772	1.1464313	0.91247856	0.17682515	0.99861078	0.90912172	-0.019406505	1.1076856	1.3646502	-0.13746832	1.0890792	1.3676584	0.19200178	1.0095387	1.3967096	0.018453304	0.93557976	1.0611049	-0.17294144	1.1514794	1.0182055	0.25747758	1.0213311	0.82514054	-0.23269475	1.3919822	0.94824687	0.26921261
415	1.656	1.6178275	0.11510974	-0.042016829	0.86477974	0.038329152	0.093295377	1.4907187	0.077492175	-0.063848646	0.73288549	0.088911452	0.12670006	1.4964562	0.10588715	0.016116331	0.76297544	0.10756494	0.04381003	1.4499716	0.022769554	-0.015698759	0.67846597	0.079876516	0.080012799	1.352264	0.44477635	-0.092366064	0.9448679	0.43214698	0.16675618	1.3685735	0.42407283	0.026786014	0.97960936	0.42499003	0.042465233	1.2063685	0.7962478	-0.14700218	1.0505136	0.82990601	0.21114399	1.2349853	0.90434355	-0.064979064	1.1531742	0.91132364	0.17674959	1.0058407	0.90860841	-0.020020952	1.1142219	1.3641995	-0.13790613	1.0949983	1.3670423	0.19140388	1.0157949	1.3960681	0.017834241	0.94142842	1.0610964	-0.17400996	1.1585817	1.0177904	0.25580574	1.026826	0.82500443	-0.23366031	1.3995042	0.9494933	0.26788808
